<?xml version="1.0" encoding="UTF-8" standalone="no"?>
<!-- Created with Inkscape (http://www.inkscape.org/) -->

<svg
   xmlns:dc="http://purl.org/dc/elements/1.1/"
   xmlns:cc="http://creativecommons.org/ns#"
   xmlns:rdf="http://www.w3.org/1999/02/22-rdf-syntax-ns#"
   xmlns:svg="http://www.w3.org/2000/svg"
   xmlns="http://www.w3.org/2000/svg"
   xmlns:xlink="http://www.w3.org/1999/xlink"
   xmlns:sodipodi="http://sodipodi.sourceforge.net/DTD/sodipodi-0.dtd"
   xmlns:inkscape="http://www.inkscape.org/namespaces/inkscape"
   width="512"
   height="512"
   viewBox="0 0 511.99999 511.99999"
   id="svg4292"
   version="1.1"
   inkscape:version="0.91+devel r14055 custom"
   sodipodi:docname="easytag.svg">
  <defs
     id="defs4294">
    <radialGradient
       id="SVGID_1_"
       cx="162.03709"
       cy="741.37012"
       r="62.866199"
       gradientTransform="matrix(0.8931,0,0,0.0554,-1.5962,206.0522)"
       gradientUnits="userSpaceOnUse">
      <stop
         offset="0.2151"
         style="stop-color:#231F20"
         id="stop6" />
      <stop
         offset="1"
         style="stop-color:#231F20;stop-opacity:0"
         id="stop8" />
    </radialGradient>
    <radialGradient
       id="SVGID_2_"
       cx="129.2041"
       cy="749.39447"
       r="88.659798"
       fx="179.2036"
       fy="736.83069"
       gradientTransform="matrix(0.8931,0,0,0.0554,-1.5962,206.0522)"
       gradientUnits="userSpaceOnUse">
      <stop
         offset="0.2151"
         style="stop-color:#231F20"
         id="stop13" />
      <stop
         offset="1"
         style="stop-color:#231F20;stop-opacity:0"
         id="stop15" />
    </radialGradient>
    <clipPath
       id="SVGID_6_"
       clip-path="url(#SVGID_5_)">
      <use
         height="100%"
         width="100%"
         y="0"
         x="0"
         style="overflow:visible"
         xlink:href="#SVGID_4_"
         overflow="visible"
         id="use30" />
    </clipPath>
    <linearGradient
       id="SVGID_7_"
       gradientUnits="userSpaceOnUse"
       x1="128.46919"
       y1="247.29691"
       x2="128.46919"
       y2="5.5654001">
      <stop
         offset="0"
         style="stop-color:#39B54A"
         id="stop37" />
      <stop
         offset="0.0817"
         style="stop-color:#45B748"
         id="stop39" />
      <stop
         offset="0.329"
         style="stop-color:#64BE44"
         id="stop41" />
      <stop
         offset="0.5693"
         style="stop-color:#7BC241"
         id="stop43" />
      <stop
         offset="0.7973"
         style="stop-color:#88C540"
         id="stop45" />
      <stop
         offset="1"
         style="stop-color:#8DC63F"
         id="stop47" />
    </linearGradient>
    <linearGradient
       id="SVGID_8_"
       gradientUnits="userSpaceOnUse"
       x1="128.46919"
       y1="247.29691"
       x2="128.46919"
       y2="5.5654001">
      <stop
         offset="0"
         style="stop-color:#006838"
         id="stop54" />
      <stop
         offset="0.0357"
         style="stop-color:#006838;stop-opacity:0.8587"
         id="stop56" />
      <stop
         offset="0.2527"
         style="stop-color:#006838;stop-opacity:0"
         id="stop58" />
    </linearGradient>
    <linearGradient
       id="SVGID_9_"
       gradientUnits="userSpaceOnUse"
       x1="136.6797"
       y1="229.4668"
       x2="136.6797"
       y2="39.945801">
      <stop
         offset="0"
         style="stop-color:#E6E7E8"
         id="stop63" />
      <stop
         offset="1"
         style="stop-color:#FFFFFF"
         id="stop65" />
    </linearGradient>
    <clipPath
       id="clipPath4870"
       clip-path="url(#SVGID_5_)">
      <use
         height="100%"
         width="100%"
         y="0"
         x="0"
         style="overflow:visible"
         xlink:href="#SVGID_4_"
         overflow="visible"
         id="use4872" />
    </clipPath>
    <clipPath
       id="clipPath4874"
       clip-path="url(#SVGID_5_)">
      <use
         height="100%"
         width="100%"
         y="0"
         x="0"
         style="overflow:visible"
         xlink:href="#SVGID_4_"
         overflow="visible"
         id="use4876" />
    </clipPath>
    <clipPath
       id="clipPath4878"
       clip-path="url(#SVGID_5_)">
      <use
         height="100%"
         width="100%"
         y="0"
         x="0"
         style="overflow:visible"
         xlink:href="#SVGID_4_"
         overflow="visible"
         id="use4880" />
    </clipPath>
    <clipPath
       id="clipPath4882"
       clip-path="url(#SVGID_5_)">
      <use
         height="100%"
         width="100%"
         y="0"
         x="0"
         style="overflow:visible"
         xlink:href="#SVGID_4_"
         overflow="visible"
         id="use4884" />
    </clipPath>
    <clipPath
       id="clipPath4886"
       clip-path="url(#SVGID_5_)">
      <use
         height="100%"
         width="100%"
         y="0"
         x="0"
         style="overflow:visible"
         xlink:href="#SVGID_4_"
         overflow="visible"
         id="use4888" />
    </clipPath>
    <clipPath
       id="clipPath4890"
       clip-path="url(#SVGID_5_)">
      <use
         height="100%"
         width="100%"
         y="0"
         x="0"
         style="overflow:visible"
         xlink:href="#SVGID_4_"
         overflow="visible"
         id="use4892" />
    </clipPath>
    <clipPath
       id="clipPath4894"
       clip-path="url(#SVGID_5_)">
      <use
         height="100%"
         width="100%"
         y="0"
         x="0"
         style="overflow:visible"
         xlink:href="#SVGID_4_"
         overflow="visible"
         id="use4896" />
    </clipPath>
    <linearGradient
       id="SVGID_10_"
       gradientUnits="userSpaceOnUse"
       x1="67.374496"
       y1="87.669403"
       x2="67.374496"
       y2="43.831501">
      <stop
         offset="0"
         style="stop-color:#777777"
         id="stop112" />
      <stop
         offset="0.2068"
         style="stop-color:#7C7C7C"
         id="stop114" />
      <stop
         offset="0.4394"
         style="stop-color:#898989"
         id="stop116" />
      <stop
         offset="0.6845"
         style="stop-color:#A0A0A0"
         id="stop118" />
      <stop
         offset="0.9368"
         style="stop-color:#BFBFBF"
         id="stop120" />
      <stop
         offset="1"
         style="stop-color:#C8C8C8"
         id="stop122" />
    </linearGradient>
    <clipPath
       id="clipPath4905"
       clip-path="url(#SVGID_5_)">
      <use
         height="100%"
         width="100%"
         y="0"
         x="0"
         style="overflow:visible"
         xlink:href="#SVGID_4_"
         overflow="visible"
         id="use4907" />
    </clipPath>
    <linearGradient
       id="SVGID_11_"
       gradientUnits="userSpaceOnUse"
       x1="67.374496"
       y1="82.337898"
       x2="67.374496"
       y2="49.163601">
      <stop
         offset="0"
         style="stop-color:#C8C8C8"
         id="stop133" />
      <stop
         offset="0.0632"
         style="stop-color:#BFBFBF"
         id="stop135" />
      <stop
         offset="0.3155"
         style="stop-color:#A0A0A0"
         id="stop137" />
      <stop
         offset="0.5606"
         style="stop-color:#898989"
         id="stop139" />
      <stop
         offset="0.7932"
         style="stop-color:#7C7C7C"
         id="stop141" />
      <stop
         offset="1"
         style="stop-color:#777777"
         id="stop143" />
    </linearGradient>
    <clipPath
       id="clipPath4916"
       clip-path="url(#SVGID_5_)">
      <use
         height="100%"
         width="100%"
         y="0"
         x="0"
         style="overflow:visible"
         xlink:href="#SVGID_4_"
         overflow="visible"
         id="use4918" />
    </clipPath>
    <clipPath
       id="clipPath4920"
       clip-path="url(#SVGID_5_)">
      <use
         height="100%"
         width="100%"
         y="0"
         x="0"
         style="overflow:visible"
         xlink:href="#SVGID_4_"
         overflow="visible"
         id="use4922" />
    </clipPath>
    <defs
       id="defs20">
      <path
         d="M 245.46,129.523 147.569,32.625 c -5.556,-5.502 -16.222,-11.873 -23.7,-14.16 L 84.351,6.382 C 76.872,4.096 66.255,6.773 60.752,12.33 L 47.311,25.908 c -5.5,5.559 -14.502,14.653 -20.005,20.21 l -13.44,13.579 c -5.5,5.558 -8.07,16.206 -5.706,23.658 l 12.483,39.391 c 2.363,7.456 8.843,18.056 14.399,23.556 l 97.89,96.898 c 5.558,5.502 14.605,5.455 20.105,-0.101 l 36.26,-36.63 c 5.504,-5.559 14.503,-14.651 20.005,-20.209 l 36.259,-36.629 c 5.502,-5.56 5.455,-14.606 -0.101,-20.108 z M 67.375,78.783 c -7.198,0 -13.033,-5.835 -13.033,-13.033 0,-7.197 5.835,-13.033 13.033,-13.033 7.197,0 13.033,5.835 13.033,13.033 -0.001,7.198 -5.836,13.033 -13.033,13.033 z"
         id="SVGID_3_"
         inkscape:connector-curvature="0" />
    </defs>
    <defs
       id="defs23">
      <path
         d="M 245.46,129.523 147.569,32.625 c -5.556,-5.502 -16.222,-11.873 -23.7,-14.16 L 84.351,6.382 C 76.872,4.096 66.255,6.773 60.752,12.33 L 47.311,25.908 c -5.5,5.559 -14.502,14.653 -20.005,20.21 l -13.44,13.579 c -5.5,5.558 -8.07,16.206 -5.706,23.658 l 12.483,39.391 c 2.363,7.456 8.843,18.056 14.399,23.556 l 97.89,96.898 c 5.558,5.502 14.605,5.455 20.105,-0.101 l 36.26,-36.63 c 5.504,-5.559 14.503,-14.651 20.005,-20.209 l 36.259,-36.629 c 5.502,-5.56 5.455,-14.606 -0.101,-20.108 z M 67.375,78.783 c -7.198,0 -13.033,-5.835 -13.033,-13.033 0,-7.197 5.835,-13.033 13.033,-13.033 7.197,0 13.033,5.835 13.033,13.033 -0.001,7.198 -5.836,13.033 -13.033,13.033 z"
         id="SVGID_4_"
         inkscape:connector-curvature="0" />
    </defs>
    <clipPath
       id="SVGID_5_">
      <use
         id="use27"
         overflow="visible"
         xlink:href="#SVGID_3_"
         style="overflow:visible"
         x="0"
         y="0"
         width="100%"
         height="100%" />
    </clipPath>
    <clipPath
       clip-path="url(#SVGID_5_)"
       id="clipPath4946">
      <use
         id="use4948"
         overflow="visible"
         xlink:href="#SVGID_4_"
         style="overflow:visible"
         x="0"
         y="0"
         width="100%"
         height="100%" />
    </clipPath>
    <linearGradient
       y2="39.945801"
       x2="136.6797"
       y1="229.4668"
       x1="136.6797"
       gradientUnits="userSpaceOnUse"
       id="linearGradient4977">
      <stop
         id="stop4979"
         style="stop-color:#E6E7E8"
         offset="0" />
      <stop
         id="stop4981"
         style="stop-color:#FFFFFF"
         offset="1" />
    </linearGradient>
    <linearGradient
       id="linearGradient4952"
       gradientUnits="userSpaceOnUse"
       x1="128.46919"
       y1="247.29691"
       x2="128.46919"
       y2="5.5654001">
      <stop
         offset="0"
         style="stop-color:#39B54A"
         id="stop4954" />
      <stop
         offset="0.0817"
         style="stop-color:#45B748"
         id="stop4956" />
      <stop
         offset="0.329"
         style="stop-color:#64BE44"
         id="stop4958" />
      <stop
         offset="0.5693"
         style="stop-color:#7BC241"
         id="stop4960" />
      <stop
         offset="0.7973"
         style="stop-color:#88C540"
         id="stop4962" />
      <stop
         offset="1"
         style="stop-color:#8DC63F"
         id="stop4964" />
    </linearGradient>
  </defs>
  <sodipodi:namedview
     id="base"
     pagecolor="#ffffff"
     bordercolor="#666666"
     borderopacity="1.0"
     inkscape:pageopacity="0.0"
     inkscape:pageshadow="2"
     inkscape:zoom="2.2097087"
     inkscape:cx="210.40804"
     inkscape:cy="404.3281"
     inkscape:document-units="px"
     inkscape:current-layer="layer1"
     showgrid="false"
     units="px"
     inkscape:window-width="1920"
     inkscape:window-height="1008"
     inkscape:window-x="0"
     inkscape:window-y="32"
     inkscape:window-maximized="0" />
  <metadata
     id="metadata4297">
    <rdf:RDF>
      <cc:Work
         rdf:about="">
        <dc:format>image/svg+xml</dc:format>
        <dc:type
           rdf:resource="http://purl.org/dc/dcmitype/StillImage" />
        <dc:title />
      </cc:Work>
    </rdf:RDF>
  </metadata>
  <g
     inkscape:label="Capa 1"
     inkscape:groupmode="layer"
     id="layer1"
     transform="translate(0,-540.36219)">
    <path
       style="fill:#0fa15f;fill-opacity:1;stroke-width:1.82001138"
       inkscape:connector-curvature="0"
       d="M 468.9248,796.96753 290.76207,620.61206 C 280.65008,610.59836 261.23784,599.00307 247.6278,594.8407 l -71.92321,-21.9912 c -13.61187,-4.16054 -32.93493,0.71163 -42.95045,10.82543 l -24.46277,24.71212 c -10.010067,10.11744 -26.39381,26.66862 -36.409333,36.78243 l -24.460953,24.71393 c -10.010063,10.11562 -14.687492,29.49511 -10.384985,43.05783 l 22.719202,71.69207 c 4.300687,13.57 16.094361,32.86213 26.206344,42.87219 L 264.12256,1003.861 c 10.11562,10.0137 26.58127,9.9281 36.59133,-0.1839 l 65.99361,-66.66698 c 10.01735,-10.11744 26.39563,-26.66498 36.40933,-36.78061 l 65.9918,-66.66519 c 10.0137,-10.11927 9.92816,-26.58309 -0.18383,-36.59679 z M 144.80807,704.62015 c -13.10044,0 -23.7202,-10.61977 -23.7202,-23.72021 0,-13.09862 10.61976,-23.72021 23.7202,-23.72021 13.09863,0 23.72021,10.61977 23.72021,23.72021 -0.002,13.10044 -10.62158,23.72021 -23.72021,23.72021 z"
       id="path34" />
    <path
       style="fill:#0fa15f;fill-opacity:1;stroke-width:1.82001138"
       inkscape:connector-curvature="0"
       d="M 468.9248,796.96753 290.76207,620.61206 C 280.65008,610.59836 261.23784,599.00307 247.6278,594.8407 l -71.92321,-21.9912 c -13.61187,-4.16054 -32.93493,0.71163 -42.95045,10.82543 l -24.46277,24.71212 c -10.010067,10.11744 -26.39381,26.66862 -36.409333,36.78243 l -24.460953,24.71393 c -10.010063,10.11562 -14.687492,29.49511 -10.384985,43.05783 l 22.719202,71.69207 c 4.300687,13.57 16.094361,32.86213 26.206344,42.87219 L 264.12256,1003.861 c 10.11562,10.0137 26.58127,9.9281 36.59133,-0.1839 l 65.99361,-66.66698 c 10.01735,-10.11744 26.39563,-26.66498 36.40933,-36.78061 l 65.9918,-66.66519 c 10.0137,-10.11927 9.92816,-26.58309 -0.18383,-36.59679 z M 144.80807,704.62015 c -13.10044,0 -23.7202,-10.61977 -23.7202,-23.72021 0,-13.09862 10.61976,-23.72021 23.7202,-23.72021 13.09863,0 23.72021,10.61977 23.72021,23.72021 -0.002,13.10044 -10.62158,23.72021 -23.72021,23.72021 z"
       id="path49" />
    <path
       id="path67"
       d="m 119.142,160.18 c 0.84,7.224 1.71,13.293 2.208,19.39 0.512,6.339 3.038,8.335 9.523,6.429 22.587,-6.635 45.307,-12.838 67.97,-19.206 2.67,-0.75 5.341,-1.501 9.025,-2.535 0.833,12.349 1.615,23.891 2.412,35.654 -1.142,0.599 -1.95,1.211 -2.854,1.465 -31.292,8.807 -62.574,17.621 -93.895,26.293 -3.664,1.014 -7.543,1.427 -11.355,1.697 C 90.384,230.227 82.548,225.62 79.808,214.074 76.516,200.198 74.52,185.987 72.551,171.832 69.208,147.797 65.861,123.745 63.399,99.604 61.398,80.011 68.687,68.89 87.52,63.106 c 25.428,-7.81 51.072,-15.024 76.851,-21.607 18.449,-4.705 27.947,1.101 31.71,19.9 3.24,16.215 5.159,32.819 6.165,49.337 1.003,16.504 -5.839,25.949 -21.635,31.218 -17.217,5.745 -34.78,10.464 -52.195,15.617 -2.9,0.856 -5.822,1.64 -9.274,2.609 z m -4.598,-31.437 c 13.178,-3.704 25.534,-6.922 37.661,-10.851 1.854,-0.599 3.891,-4.542 3.736,-6.795 -0.588,-8.65 -2.093,-17.234 -3.128,-25.862 -0.501,-4.16 -2.669,-5.014 -6.397,-3.938 -10.324,2.989 -20.794,5.54 -30.96,8.994 -2.189,0.75 -4.88,4.648 -4.722,6.915 0.702,10.166 2.353,20.269 3.81,31.537 z"
       clip-path="url(#SVGID_6_)"
       inkscape:connector-curvature="0"
       style="clip-rule:evenodd;fill:#ffffff;fill-rule:evenodd"
       transform="matrix(1.8200114,0,0,1.8200114,22.184806,561.23419)" />
    <g
       id="g89"
       clip-path="url(#SVGID_6_)"
       transform="matrix(1.8200114,0,0,1.8200114,22.184806,561.23419)" />
    <g
       id="g103"
       clip-path="url(#SVGID_6_)"
       transform="matrix(1.8200114,0,0,1.8200114,22.184806,561.23419)"
       style="fill:#ececec;stroke:none">
      <g
         id="g105"
         style="fill:#ececec;stroke:none">
        <g
           id="g107"
           style="opacity:0.3;fill:#ececec;stroke:none" />
        <linearGradient
           y2="43.831501"
           x2="67.374496"
           y1="87.669403"
           x1="67.374496"
           gradientUnits="userSpaceOnUse"
           id="linearGradient5005">
          <stop
             id="stop5007"
             style="stop-color:#777777"
             offset="0" />
          <stop
             id="stop5009"
             style="stop-color:#7C7C7C"
             offset="0.2068" />
          <stop
             id="stop5011"
             style="stop-color:#898989"
             offset="0.4394" />
          <stop
             id="stop5013"
             style="stop-color:#A0A0A0"
             offset="0.6845" />
          <stop
             id="stop5015"
             style="stop-color:#BFBFBF"
             offset="0.9368" />
          <stop
             id="stop5017"
             style="stop-color:#C8C8C8"
             offset="1" />
        </linearGradient>
        <path
           id="path124"
           d="m 67.375,52.718 c 7.197,0 13.033,5.835 13.033,13.033 0,7.198 -5.835,13.033 -13.033,13.033 -7.198,0 -13.033,-5.835 -13.033,-13.033 0,-7.198 5.835,-13.033 13.033,-13.033 m 0,-8.886 c -12.086,0 -21.919,9.833 -21.919,21.919 0,12.085 9.833,21.919 21.919,21.919 12.086,0 21.919,-9.834 21.919,-21.919 C 89.293,53.665 79.46,43.832 67.375,43.832 l 0,0 z"
           inkscape:connector-curvature="0"
           style="fill:#ececec;stroke:none" />
      </g>
    </g>
    <path
       id="path147"
       d="M 69.43,72.868 C 19.667,106.414 27.979,211.314 63.079,215.903"
       clip-path="url(#SVGID_6_)"
       inkscape:connector-curvature="0"
       style="fill:none;stroke:#231f20;stroke-width:5.33179998;stroke-linecap:round;stroke-opacity:0.3"
       transform="matrix(1.8200114,0,0,1.8200114,22.184806,561.23419)" />
    <g
       transform="matrix(1.8200114,0,0,1.8200114,22.184806,561.23419)"
       id="Layer_2">
      <g
         id="g156">
        <path
           style="fill:#231f20"
           inkscape:connector-curvature="0"
           d="m 63.255,174.228 c -0.938,10.178 -4.014,26.452 -13.949,35.368 -4.674,4.193 -10.322,6.308 -16.834,6.308 -1.382,0 -2.804,-0.096 -4.263,-0.287 C 19.241,214.446 13.083,207.812 10.401,196.435 2.383,162.438 26.194,96.403 64.386,70.658 c 1.222,-0.823 2.878,-0.499 3.7,0.721 0.824,1.22 0.501,2.878 -0.72,3.701 -38.153,25.718 -58.625,91.091 -51.776,120.131 2.16,9.16 6.638,14.246 13.309,15.119 6.806,0.889 12.32,-0.647 16.839,-4.696 10.111,-9.065 12.113,-28.142 12.498,-36.373"
           id="path158" />
      </g>
    </g>
    <path
       style="opacity:0.3;fill:#000b06;fill-opacity:1;stroke-width:1.82001138"
       d="m 35.726562,156.36523 c -0.609524,5.68891 -0.2409,11.32844 1.308594,16.21289 l 22.720703,71.69336 c 4.30068,13.57 16.093098,32.86104 26.205079,42.8711 L 264.12305,463.49805 c 10.11562,10.0137 26.58173,9.9284 36.59179,-0.1836 l 65.99219,-66.66601 c 10.01735,-10.11744 26.39646,-26.66562 36.41016,-36.78125 l 65.99219,-66.66602 c 6.2391,-6.30488 8.55504,-15.07089 6.9707,-23.20703 -0.94136,4.83965 -3.26109,9.45831 -6.9707,13.20703 l -65.99219,66.66602 c -10.0137,10.11563 -26.39281,26.66381 -36.41016,36.78125 l -65.99219,66.66601 c -10.01006,10.112 -26.47617,10.1973 -36.59179,0.1836 L 85.960938,277.14258 C 75.848958,267.13252 64.056539,247.84148 59.755859,234.27148 L 37.035156,162.57812 c -0.623004,-1.96388 -1.051082,-4.05086 -1.308594,-6.21289 z"
       transform="translate(0,540.36219)"
       id="path49-2"
       inkscape:connector-curvature="0"
       sodipodi:nodetypes="ccsccscccccccsccscc" />
    <path
       style="opacity:0.3;fill:#ffffff;fill-opacity:1;stroke-width:1.82001138"
       d="m 164.66016,31.001953 c -11.6466,0.08915 -24.39462,4.725197 -31.90625,12.310547 L 108.29102,68.025391 C 98.280941,78.142831 81.898342,94.692831 71.882812,104.80664 l -24.460937,24.71484 c -8.560601,8.65088 -13.21619,24.07471 -11.695313,36.84375 1.08295,-10.10754 5.290254,-20.37114 11.695313,-26.84375 L 71.882812,114.80664 C 81.898342,104.69283 98.280943,88.142831 108.29102,78.025391 L 132.75391,53.3125 c 10.01551,-10.1138 29.3393,-14.984759 42.95117,-10.824219 l 71.92187,21.990235 C 261.23699,68.640886 280.64973,80.2363 290.76172,90.25 l 178.16211,176.35547 c 3.81164,3.77459 6.19774,8.4664 7.15625,13.38867 1.59973,-8.22446 -0.79029,-17.08458 -7.15625,-23.38867 L 290.76172,80.25 C 280.64973,70.2363 261.23699,58.640886 247.62695,54.478516 L 175.70508,32.488281 c -3.40297,-1.040135 -7.16273,-1.516046 -11.04492,-1.486328 z"
       transform="translate(0,540.36219)"
       id="path49-5"
       inkscape:connector-curvature="0"
       sodipodi:nodetypes="sccccccccccccccccccs" />
  </g>
</svg>
