<?xml version="1.0" encoding="UTF-8" standalone="no"?>
<!-- Created with Inkscape (http://www.inkscape.org/) -->

<svg
   xmlns:dc="http://purl.org/dc/elements/1.1/"
   xmlns:cc="http://creativecommons.org/ns#"
   xmlns:rdf="http://www.w3.org/1999/02/22-rdf-syntax-ns#"
   xmlns:svg="http://www.w3.org/2000/svg"
   xmlns="http://www.w3.org/2000/svg"
   xmlns:sodipodi="http://sodipodi.sourceforge.net/DTD/sodipodi-0.dtd"
   xmlns:inkscape="http://www.inkscape.org/namespaces/inkscape"
   width="512"
   height="512"
   viewBox="0 0 512 512.00002"
   id="svg2"
   version="1.1"
   inkscape:version="0.91+devel r"
   sodipodi:docname="softwarecenter.svg">
  <defs
     id="defs4" />
  <sodipodi:namedview
     id="base"
     pagecolor="#ffffff"
     bordercolor="#666666"
     borderopacity="1.0"
     inkscape:pageopacity="0.0"
     inkscape:pageshadow="2"
     inkscape:zoom="0.70710678"
     inkscape:cx="91.753963"
     inkscape:cy="371.47181"
     inkscape:document-units="px"
     inkscape:current-layer="layer1"
     showgrid="false"
     units="px"
     inkscape:showpageshadow="false"
     borderlayer="true"
     inkscape:window-width="1920"
     inkscape:window-height="1024"
     inkscape:window-x="0"
     inkscape:window-y="29"
     inkscape:window-maximized="1"
     showguides="false">
    <inkscape:grid
       type="xygrid"
       id="grid4136" />
    <sodipodi:guide
       position="5,59.000069"
       orientation="54,0"
       id="guide4142" />
    <sodipodi:guide
       position="5,5.0000688"
       orientation="0,54"
       id="guide4144" />
    <sodipodi:guide
       position="59,5.0000688"
       orientation="-54,0"
       id="guide4146" />
    <sodipodi:guide
       position="59,59.000069"
       orientation="0,-54"
       id="guide4148" />
    <sodipodi:guide
       position="0,64.000069"
       orientation="64,0"
       id="guide4150" />
    <sodipodi:guide
       position="0,6.875e-05"
       orientation="0,64"
       id="guide4152" />
    <sodipodi:guide
       position="64,6.875e-05"
       orientation="-64,0"
       id="guide4154" />
    <sodipodi:guide
       position="64,64.000069"
       orientation="0,-64"
       id="guide4156" />
    <sodipodi:guide
       position="13,50.999947"
       orientation="38,0"
       id="guide4155" />
    <sodipodi:guide
       position="13,12.999947"
       orientation="0,38"
       id="guide4157" />
    <sodipodi:guide
       position="51,12.999947"
       orientation="-38,0"
       id="guide4159" />
    <sodipodi:guide
       position="51,50.999947"
       orientation="0,-38"
       id="guide4161" />
  </sodipodi:namedview>
  <metadata
     id="metadata7">
    <rdf:RDF>
      <cc:Work
         rdf:about="">
        <dc:format>image/svg+xml</dc:format>
        <dc:type
           rdf:resource="http://purl.org/dc/dcmitype/StillImage" />
        <dc:title />
      </cc:Work>
    </rdf:RDF>
  </metadata>
  <g
     inkscape:label="Capa 1"
     inkscape:groupmode="layer"
     id="layer1"
     transform="translate(0,-610.5196)">
    <rect
       style="opacity:1;fill:#e04b26;fill-opacity:1;stroke:none;stroke-width:8.33333492;stroke-opacity:1"
       id="rect4172"
       width="450.00009"
       height="349.99542"
       x="30.999954"
       y="741.52008" />
    <path
       style="opacity:1;fill:#2c3e50;fill-opacity:1;stroke:none;stroke-width:8.33333492;stroke-opacity:1"
       d="m 256.00001,641.51957 c -50.78336,0 -91.6667,40.88334 -91.6667,91.66668 l 0,41.66668 16.66668,0 0,-41.66668 c 0,-41.54975 33.45026,-75 75.00002,-75 41.54975,0 75.00002,33.45025 75.00002,75 l 0,41.66668 16.66666,0 0,-41.66668 c 0,-50.78334 -40.88334,-91.66668 -91.66668,-91.66668 z"
       id="rect4179"
       inkscape:connector-curvature="0"
       sodipodi:nodetypes="ssccsssccss" />
    <circle
       style="opacity:1;fill:#bdc3c7;fill-opacity:1;stroke:none;stroke-width:8.33333492;stroke-opacity:1"
       id="path4189"
       cx="172.66664"
       cy="774.85333"
       r="16.66667" />
    <circle
       style="opacity:1;fill:#bdc3c7;fill-opacity:1;stroke:none;stroke-width:8.33333492;stroke-opacity:1"
       id="path4189-1"
       cx="339.33337"
       cy="774.85333"
       r="16.66667" />
    <rect
       style="opacity:1;fill:#f26f3a;fill-opacity:1;stroke:none;stroke-width:8.33333492;stroke-opacity:1"
       id="rect4221"
       width="450.00009"
       height="66.666107"
       x="30.999954"
       y="1024.8535" />
    <path
       style="fill:#fbdacf;fill-opacity:1;fill-rule:nonzero;stroke:none;stroke-width:42.94914627"
       d="m 383.12819,875.61705 c -36.81814,0 -66.66513,29.85334 -66.66513,66.66335 0,36.815 29.84699,66.67 66.66513,66.67 36.81869,0 66.66468,-29.855 66.66468,-66.67 0,-36.81001 -29.84599,-66.66335 -66.66468,-66.66335 z m 23.76252,18.56834 c 1.14699,0.11667 2.28201,0.36667 3.3459,1.14833 4.25719,2.43583 5.72621,7.89167 3.268,12.1525 -2.45647,4.25334 -7.90431,5.71584 -12.16123,3.2375 -4.25589,-2.44167 -5.71204,-7.89833 -3.25498,-12.15166 1.84358,-3.20001 5.36045,-4.80167 8.80168,-4.38417 z m -23.76252,9.4275 c 3.57915,0 7.0364,0.35834 10.32527,1.42667 0.58341,3.54667 2.70985,6.84917 6.09356,8.82083 3.37847,1.92334 7.2801,2.13417 10.66381,0.95 6.5818,6.46418 10.87255,15.29084 11.49719,25.09251 l -12.68215,0.15 c -1.16717,-13.26001 -12.31504,-23.68168 -25.89768,-23.68168 -3.91418,0 -7.62136,0.96167 -10.95041,2.4225 l -6.18492,-11.08082 c 5.16577,-2.55834 10.98054,-4.01418 17.13533,-4.01418 z m -21.44494,6.50833 6.49723,10.86834 c -6.68382,4.73667 -11.0545,12.49834 -11.0545,21.29084 0,8.8 4.37071,16.56167 11.0545,21.29666 l -6.49723,10.86923 c -7.78922,-5.20752 -13.58296,-13.1384 -15.98927,-22.46089 2.81166,-2.32417 4.5962,-5.80333 4.5962,-9.705 0,-3.89833 -1.78468,-7.3725 -4.5962,-9.69834 2.40658,-9.32333 8.20079,-17.25833 15.98927,-22.46084 z m -23.89249,23.24501 c 4.91481,0 8.90584,3.99334 8.90584,8.91417 0,4.92583 -3.99105,8.915 -8.90584,8.915 -4.91677,0 -8.89307,-3.99 -8.89307,-8.915 0,-4.91917 3.9763,-8.91417 8.89307,-8.91417 z m 71.23511,11.20917 12.68215,0.15 c -0.62459,9.79417 -4.90326,18.5975 -11.48449,25.07417 -3.38356,-1.28169 -7.29873,-1.1133 -10.67653,0.97337 -3.38399,1.92746 -5.51179,5.2375 -6.09354,8.82246 -3.28914,0.97919 -6.74612,1.38497 -10.32527,1.38497 -6.15479,0 -11.96925,-1.43413 -17.13533,-4.01079 l 6.18492,-11.07837 c 3.32939,1.56587 7.0363,2.41505 10.95041,2.41505 13.58264,0 24.73054,-10.40919 25.89768,-23.66419 z m -4.3359,28.12662 c 3.44116,-0.30833 6.97205,1.19339 8.81482,4.38421 2.4582,4.26003 1.00073,9.71077 -3.25498,12.1534 -4.25718,2.47992 -9.70315,1.05322 -12.1612,-3.23845 -2.45748,-4.25993 -1.00156,-9.71077 3.2554,-12.15244 1.06417,-0.44999 2.19919,-1.03332 3.34591,-1.14834 z"
       id="roundel"
       inkscape:connector-curvature="0" />
  </g>
</svg>
